<?xml version="1.0" encoding="UTF-8" standalone="no"?>
<!-- Created with Inkscape (http://www.inkscape.org/) -->

<svg
   width="256.00012"
   height="255.99998"
   viewBox="0 0 67.733364 67.733329"
   version="1.1"
   id="svg1"
   xml:space="preserve"
   inkscape:export-filename="discord.svg"
   inkscape:export-xdpi="96"
   inkscape:export-ydpi="96"
   xmlns:inkscape="http://www.inkscape.org/namespaces/inkscape"
   xmlns:sodipodi="http://sodipodi.sourceforge.net/DTD/sodipodi-0.dtd"
   xmlns="http://www.w3.org/2000/svg"
   xmlns:svg="http://www.w3.org/2000/svg"><sodipodi:namedview
     id="namedview1"
     pagecolor="#ffffff"
     bordercolor="#000000"
     borderopacity="0.25"
     inkscape:showpageshadow="2"
     inkscape:pageopacity="0.0"
     inkscape:pagecheckerboard="0"
     inkscape:deskcolor="#d1d1d1"
     inkscape:document-units="mm"
     inkscape:zoom="2.0485264"
     inkscape:cx="102.51271"
     inkscape:cy="110.07913"
     inkscape:window-width="1920"
     inkscape:window-height="1009"
     inkscape:window-x="-8"
     inkscape:window-y="-8"
     inkscape:window-maximized="1"
     inkscape:current-layer="layer1" /><defs
     id="defs1" /><g
     inkscape:label="Слой 1"
     inkscape:groupmode="layer"
     id="layer1"><path
       style="fill:#e2fdd0;fill-opacity:1;stroke-width:1.54216"
       d="M 14.473061,58.817539 C 8.8069417,56.799759 0.54182866,51.916824 0.14999466,50.355634 c -0.443944,-1.76881 0.17232,-13.671717 0.87298504,-16.861371 1.671092,-7.607347 5.088517,-15.313785 8.395456,-18.932104 1.4931473,-1.633741 2.9694553,-2.717732 5.0911863,-3.738243 3.018624,-1.4518985 8.401646,-2.8478555 9.442127,-2.4485845 0.310524,0.119162 0.811992,0.805049 1.114371,1.524198 l 0.549782,1.3075465 7.985104,0.02632 7.985104,0.02632 0.690668,-1.5316275 c 0.816056,-1.809689 1.19236,-1.860016 5.558379,-0.743375 7.221165,1.8468615 10.842317,4.9595175 14.394166,12.3728815 3.803427,7.93845 5.497146,15.540126 5.501543,24.691779 l 0.0025,5.006585 -2.825387,1.827734 c -3.446774,2.229706 -9.26478,5.138619 -12.196266,6.097942 -2.087588,0.68316 -2.190504,0.68144 -2.750373,-0.04596 -1.709449,-2.220963 -3.070127,-4.657003 -2.823823,-5.055532 0.153939,-0.249084 1.362338,-0.922324 2.685324,-1.496085 2.540166,-1.101639 2.759552,-1.358772 1.822693,-2.136297 -0.454143,-0.376906 -0.850877,-0.344962 -1.797897,0.144763 -2.127909,1.100384 -7.93387,2.597192 -11.920636,3.073205 -5.938498,0.709045 -13.05487,-0.284605 -18.822342,-2.628139 -1.948572,-0.791776 -2.441334,-0.859561 -3.044158,-0.418765 -0.643872,0.47081 -0.443372,0.664249 1.913136,1.845746 1.447812,0.725899 2.689046,1.370015 2.758297,1.431369 0.261671,0.231836 -1.147627,3.112564 -2.193596,4.483902 -1.23842,1.623651 -1.278738,1.629975 -4.065184,0.637684 z M 26.014127,42.116495 c 0.495375,-0.265117 1.363216,-1.162714 1.928538,-1.994659 1.926366,-2.834902 1.079081,-7.051047 -1.804106,-8.97735 -2.793789,-1.866576 -5.288525,-1.685807 -7.778374,0.563621 -2.930703,2.647715 -3.142582,6.27419 -0.535193,9.160259 2.054298,2.27386 5.337521,2.774265 8.189135,1.248129 z M 49.44835,41.381706 c 4.777522,-4.323599 0.69014,-12.505947 -5.652767,-11.316011 -0.827784,0.155293 -2.176612,0.904127 -3.050284,1.693437 -5.139672,4.643386 -0.546092,12.813287 6.115076,10.875955 0.97499,-0.283566 2.139578,-0.847587 2.587975,-1.253381 z"
       id="path1" /><rect
       style="fill:none;fill-opacity:1;stroke:none;stroke-width:1.97333"
       id="rect1"
       width="67.73333"
       height="67.73333"
       x="0"
       y="0" /></g></svg>
