<?xml version="1.0" encoding="UTF-8" standalone="no"?>
<!-- Created with Inkscape (http://www.inkscape.org/) -->

<svg
   width="255.99998"
   height="255.99998"
   viewBox="0 0 67.733328 67.733329"
   version="1.1"
   id="svg1"
   xml:space="preserve"
   inkscape:export-filename="telegram.svg"
   inkscape:export-xdpi="96"
   inkscape:export-ydpi="96"
   xmlns:inkscape="http://www.inkscape.org/namespaces/inkscape"
   xmlns:sodipodi="http://sodipodi.sourceforge.net/DTD/sodipodi-0.dtd"
   xmlns="http://www.w3.org/2000/svg"
   xmlns:svg="http://www.w3.org/2000/svg"><sodipodi:namedview
     id="namedview1"
     pagecolor="#ffffff"
     bordercolor="#000000"
     borderopacity="0.25"
     inkscape:showpageshadow="2"
     inkscape:pageopacity="0.0"
     inkscape:pagecheckerboard="0"
     inkscape:deskcolor="#d1d1d1"
     inkscape:document-units="mm"
     inkscape:zoom="2.0485264"
     inkscape:cx="102.51271"
     inkscape:cy="110.07913"
     inkscape:window-width="1920"
     inkscape:window-height="1009"
     inkscape:window-x="-8"
     inkscape:window-y="-8"
     inkscape:window-maximized="1"
     inkscape:current-layer="layer1" /><defs
     id="defs1" /><g
     inkscape:label="Слой 1"
     inkscape:groupmode="layer"
     id="layer1"><path
       style="fill:#e2fdd0;fill-opacity:1;stroke-width:1.47238"
       d="M 53.442886,61.712086 C 50.924939,60.925722 34.36939,49.810654 31.139147,46.737798 29.0153,44.717431 29.039044,43.457801 31.244628,41.14223 c 0.910616,-0.95603 5.626667,-5.540749 10.480113,-10.188267 8.518521,-8.157085 10.42377,-10.433001 9.310048,-11.121318 -0.871607,-0.538683 -3.272928,0.741486 -10.099823,5.384321 -3.66967,2.495669 -10.018906,6.814248 -14.109417,9.596844 l -7.437292,5.059263 -2.98319,-0.03789 C 13.932512,39.803793 12.357679,39.451199 7.2048752,37.775319 3.7855282,36.663223 0.7615042,35.56545 0.4848197,35.335823 -0.2728208,34.707037 -0.1199769,33.191008 0.7861696,32.346805 1.5783448,31.608782 3.4121402,30.752043 16.538415,24.987446 31.973911,18.208719 62.198235,5.8858964 64.157384,5.5726154 c 1.151913,-0.184198 1.699846,-0.05323 2.539086,0.606923 1.43978,1.13253 1.411828,2.471029 -0.283088,13.5558386 -0.744301,4.867756 -2.331936,15.42443 -3.528079,23.459278 -1.196142,8.034848 -2.351928,15.172821 -2.568414,15.862162 -0.216485,0.689341 -0.921276,1.69735 -1.566201,2.240018 -1.32031,1.110969 -2.727578,1.221065 -5.307802,0.415251 z"
       id="path1" /><rect
       style="fill:none;fill-opacity:1;stroke:none;stroke-width:4.93642"
       id="rect1"
       width="67.73333"
       height="67.73333"
       x="0"
       y="1.110223e-16" /></g></svg>
